<svg xmlns="http://www.w3.org/2000/svg" viewBox="0 0 40 40"><title>print-speech</title><g id="f1f5fa4a-e23d-4ac3-908b-ac01bdd53264" data-name="print-speech"><path id="a2b87211-229c-45c5-a9b8-3fac7afe23cb" data-name="icons10" d="M36.58,24.82a10.91,10.91,0,0,0-2.87-10.38,10.78,10.78,0,0,0-5.15-2.89V6.06H6.72v6.81H5a3,3,0,0,0-3,3V25.5a3,3,0,0,0,3,3H6.72v4.58h9.11v-1.5H8.22V21.75h6.89c0,.13,0,.27,0,.4A10.91,10.91,0,0,0,32.6,30.84l6.3.95ZM8.22,7.56H27.06v3.73c-.35,0-.7,0-1.06,0h0a10.83,10.83,0,0,0-5.71,1.63H8.22ZM6.72,20.25V27H5A1.48,1.48,0,0,1,3.51,25.5V15.86A1.49,1.49,0,0,1,5,14.37H18.37a10.87,10.87,0,0,0-3.1,5.88Zm25.46,9-.26.21A9.41,9.41,0,1,1,26,12.74h0a9.42,9.42,0,0,1,9.41,9.41,9.53,9.53,0,0,1-.33,2.5l-.06.22L36.7,30Z"/></g></svg>