<svg xmlns="http://www.w3.org/2000/svg" viewBox="0 0 40 40"><title>print</title><g id="b7175d95-a4eb-41b0-a366-a4a5931a13cb" data-name="print"><path id="ec82503d-46cd-4c0c-a614-e0589548d810" data-name="icons10" d="M32.64,12.87H30.92V6.06H9.08v6.81H7.36a3,3,0,0,0-3,3V25.5a3,3,0,0,0,3,3H9.08v5.46H30.92V28.48h1.72a3,3,0,0,0,3-3V15.86A3,3,0,0,0,32.64,12.87ZM10.58,7.56H29.42v5.31H10.58ZM29.42,32.44H10.58V21.75H29.42Zm4.71-6.94A1.49,1.49,0,0,1,32.64,27H30.92V20.25H9.08V27H7.35A1.48,1.48,0,0,1,5.87,25.5V15.86a1.49,1.49,0,0,1,1.49-1.49H32.64a1.49,1.49,0,0,1,1.49,1.49Z"/></g></svg>