<svg xmlns="http://www.w3.org/2000/svg" viewBox="0 0 40 40"><title>screen-print</title><g id="e10c2556-c7fe-4cc7-87e9-255135039d91" data-name="screen-print"><path id="f5fedc00-6a61-41ce-abdb-d6e1f60e474b" data-name="icons10" d="M11.75,32.68h3v1.5H4.46v-1.5h5.79V29.36H3.47A2.87,2.87,0,0,1,.62,26.51V8.66A2.86,2.86,0,0,1,3.47,5.82h23.8a2.86,2.86,0,0,1,2.85,2.84v2.15h-1.5V8.66a1.35,1.35,0,0,0-1.35-1.34H3.47A1.35,1.35,0,0,0,2.12,8.66V26.51a1.36,1.36,0,0,0,1.35,1.35h8.28ZM39.38,19v8a2.61,2.61,0,0,1-2.6,2.59H35.49V34.1H17.2V22.53H35.49v5.56h1.29A1.1,1.1,0,0,0,37.88,27V19a1.1,1.1,0,0,0-1.1-1.1H15.91A1.1,1.1,0,0,0,14.82,19v5h-1.5V19a2.61,2.61,0,0,1,2.59-2.6H17.2V10.82H35.49V16.4h1.29A2.61,2.61,0,0,1,39.38,19ZM34,12.32H18.7V16.4H34ZM34,24H18.7V32.6H34Z"/></g></svg>