<svg xmlns="http://www.w3.org/2000/svg" viewBox="0 0 40 40"><title>screen</title><g id="fc47f7a0-ec8d-4b01-bedd-6bac13ddef2b" data-name="screen"><path id="fae9dc55-ea17-4e82-9d51-63a7acc76e08" data-name="icons10" d="M31.65,6.19h-24A2.75,2.75,0,0,0,4.9,8.94V27a2.75,2.75,0,0,0,2.75,2.75H18.9V33H10.16v1.5h19V33H20.4V29.73H31.65A2.75,2.75,0,0,0,34.4,27v-18A2.75,2.75,0,0,0,31.65,6.19ZM32.9,27a1.25,1.25,0,0,1-1.25,1.25h-24A1.25,1.25,0,0,1,6.4,27v-18A1.25,1.25,0,0,1,7.65,7.69h24A1.25,1.25,0,0,1,32.9,8.94Z"/></g></svg>