<svg xmlns="http://www.w3.org/2000/svg" viewBox="0 0 40 40"><title>screen-speech</title><g id="b25b1d0d-a7e2-4c02-aae0-2668cad84561" data-name="screen-speech"><path id="ec667f67-fcfe-40cf-9495-62dffeb0d5fd" data-name="icons10" d="M14.33,32.68h3v1.5H7.06v-1.5h5.77V29.36H6.07a2.87,2.87,0,0,1-2.85-2.85V8.66A2.86,2.86,0,0,1,6.07,5.82H29.89a2.86,2.86,0,0,1,2.83,2.82v3h-1.5v-3a1.36,1.36,0,0,0-1.34-1.33H6.07A1.35,1.35,0,0,0,4.72,8.66V26.51a1.36,1.36,0,0,0,1.36,1.35h8.25Zm24.58-.07-6.3-1A11,11,0,0,1,26,33.87h0A10.93,10.93,0,0,1,26,12h0A10.94,10.94,0,0,1,36.92,23a11,11,0,0,1-.33,2.68Zm-2.2-1.86L35,25.67l.06-.22A9.46,9.46,0,0,0,26,13.51h0A9.43,9.43,0,0,0,19.32,29.6,9.32,9.32,0,0,0,26,32.37h0a9.5,9.5,0,0,0,5.94-2.1l.26-.21Z"/></g></svg>