<svg id="aa8ead90-823e-4a59-ac4a-44091e2c75b3" data-name="speech" xmlns="http://www.w3.org/2000/svg" viewBox="0 0 40 40"><defs><style>.b105ead2-6671-4338-b49f-c56c7e1fdf47{fill:#231f20;}</style></defs><title>speech</title><path id="e01cdc94-8a21-4de0-be96-c02b58ae8fd6" data-name="icons10" class="b105ead2-6671-4338-b49f-c56c7e1fdf47" d="M18.93,34.14a12.92,12.92,0,0,1-3.78-.51A14.15,14.15,0,1,1,32.62,23.54l3,8.87-8-1.23A14.11,14.11,0,0,1,18.93,34.14Zm0-26.81a12.66,12.66,0,0,0-11,18.9,12.58,12.58,0,0,0,7.63,5.95,12.4,12.4,0,0,0,3.37.46h0a12.64,12.64,0,0,0,8-2.83l.25-.21,6.24.95-2.31-7,.06-.22a12.7,12.7,0,0,0-12.22-16Z"/></svg>