<svg xmlns="http://www.w3.org/2000/svg" viewBox="0 0 40 50"><title>ease-in-out</title><g id="ae55b989-78e9-4aa8-aafa-0d9ca05d3f42" data-name="ease-in-out"><path id="aaba67a4-7858-4dcf-bdcb-7c73d53b6569" data-name="icons10" d="M38.41,5.85l-.3,1.47C38,7.31,30.75,6.2,21.3,24,15.46,35.06,10.83,40.86,5.94,43h22.9a.71.71,0,0,1,.68-.52.72.72,0,1,1,0,1.44.71.71,0,0,1-.68-.52l-24,0a11.48,11.48,0,0,1-3.13.54l0-1.5c5-.14,10-3.43,18.28-19.09C25.94,12.06,31.19,8,34.55,6.55H12.2a.71.71,0,0,1-.68.52.72.72,0,1,1,0-1.44.71.71,0,0,1,.68.52l23.44,0A6.05,6.05,0,0,1,38.41,5.85Z"/></g></svg>