<svg id="b22c06e8-23b8-4c11-bcd0-ab8bcd922140" data-name="ease" xmlns="http://www.w3.org/2000/svg" viewBox="0 0 40 50"><title>ease</title><path id="a83e7505-b2d9-4820-b7fd-f530559d010f" data-name="icons10" d="M38.18,6.64,38,8.12A20.07,20.07,0,0,0,29.32,9.6c-4.48,1.75-10.81,5.89-15.55,15.69C13,27,12.18,28.84,11.36,30.83c-1.81,4.36-3.67,8.82-6,11.36L25.61,32a.61.61,0,0,1,0-.13.73.73,0,1,1,.2.49L4.36,43.15a5.33,5.33,0,0,1-2.1,1.05l-.33-1.46c3.16-.71,5.75-7,8-12.49.83-2,1.62-3.9,2.45-5.62C18.06,13,26,8.82,31.52,7.35l-20.14,0a.71.71,0,0,1-.68.52.72.72,0,1,1,0-1.44.71.71,0,0,1,.68.52L33.3,7A17.81,17.81,0,0,1,38.18,6.64Z"/></svg>